<svg version="1.1" id="Layer_1" xmlns="http://www.w3.org/2000/svg" xmlns:xlink="http://www.w3.org/1999/xlink" x="0px" y="0px"
	 width="100%" viewBox="0 0 2048 935" enable-background="new 0 0 2048 935" xml:space="preserve">
<path fill="#000000" opacity="1.000000" stroke="none" 
	d="
M1361.000000,936.000000 
	C907.333435,936.000000 454.166840,936.000000 1.000182,936.000000 
	C1.000122,624.333496 1.000122,312.666931 1.000061,1.000308 
	C683.666443,1.000205 1366.332886,1.000205 2048.999512,1.000103 
	C2048.999512,312.666351 2048.999512,624.332703 2048.999756,935.999512 
	C1819.833374,936.000000 1590.666626,936.000000 1361.000000,936.000000 
M865.905273,889.744690 
	C866.258911,889.896973 866.612488,890.049255 867.408264,890.747620 
	C878.987732,895.009766 890.970886,895.098877 903.038208,894.108887 
	C905.922791,893.872253 908.778870,893.288269 912.495178,893.124451 
	C920.422546,890.340515 928.910278,888.534790 936.080078,884.428162 
	C940.845276,881.698853 945.229614,876.228577 947.127808,871.017456 
	C950.679565,861.266724 957.422485,856.880798 966.773315,856.109558 
	C972.634094,855.626160 978.665222,856.654541 984.569702,857.401306 
	C991.144165,858.232910 997.637268,860.215454 1004.209412,860.444641 
	C1015.582275,860.841187 1026.085693,858.645630 1034.511230,849.475281 
	C1039.838013,843.677429 1046.758911,839.347717 1052.934448,834.322327 
	C1053.727661,833.676880 1054.338379,832.807434 1055.003296,832.001526 
	C1055.003296,832.001526 1055.031128,832.037354 1055.759888,832.441589 
	C1057.632202,831.754272 1059.473389,830.962036 1061.381958,830.397278 
	C1071.538818,827.391968 1081.058105,827.712463 1089.341064,835.466064 
	C1093.830933,839.668945 1098.398071,843.841125 1103.291138,847.551392 
	C1117.039795,857.976868 1131.425415,867.199341 1149.107422,869.486023 
	C1155.545044,870.318542 1160.367798,867.914673 1161.651489,861.694275 
	C1162.940918,855.445862 1163.708984,848.848389 1163.211548,842.521301 
	C1162.066162,827.950256 1155.997070,814.821411 1148.415039,802.636230 
	C1141.044800,790.791565 1132.821899,779.444885 1124.491943,768.237488 
	C1112.104980,751.571838 1116.597290,718.283630 1144.461304,713.368896 
	C1150.666138,712.274414 1156.958252,711.336060 1163.240479,711.085144 
	C1179.260620,710.445312 1194.596191,714.049500 1209.652710,719.252869 
	C1212.866821,720.363586 1216.458740,721.073853 1219.820801,720.898438 
	C1224.646729,720.646790 1228.058716,717.628967 1230.008545,713.161011 
	C1231.878540,708.875854 1230.023071,705.299072 1227.467651,702.111084 
	C1223.608154,697.296143 1218.482788,694.880432 1212.234741,694.897949 
	C1200.574219,694.930664 1188.911987,695.010986 1177.253052,694.868103 
	C1167.776611,694.752075 1158.279541,694.657532 1148.837891,693.942200 
	C1142.796265,693.484619 1137.140015,690.879883 1135.248535,684.594177 
	C1133.361084,678.321106 1130.464111,671.354980 1138.278442,666.377991 
	C1139.472534,665.617493 1140.259033,664.142639 1141.093750,662.903748 
	C1148.624756,651.727966 1156.592285,640.812195 1163.524170,629.274841 
	C1174.106323,611.662109 1183.375366,593.149353 1185.706787,572.503479 
	C1189.954834,534.884460 1183.639771,499.284149 1162.025513,467.313477 
	C1161.062378,465.888977 1160.034302,464.508301 1158.854370,462.851593 
	C1157.673828,464.316467 1156.956421,465.226746 1156.218140,466.119598 
	C1147.317017,476.883514 1137.536987,486.444397 1123.918457,491.232605 
	C1120.856689,492.309113 1118.047119,494.370636 1115.423218,496.374023 
	C1108.062378,501.994232 1101.107788,508.175934 1093.534668,513.481995 
	C1082.474854,521.230896 1070.766113,527.701416 1057.428955,531.125305 
	C1050.246094,532.969238 1043.353638,536.185547 1036.586060,539.333191 
	C1030.552368,542.139465 1025.137329,545.730713 1021.892395,552.217224 
	C1020.569397,554.861816 1017.042969,556.636292 1014.192932,558.219788 
	C1011.328796,559.811035 1008.059143,560.672424 1004.266479,561.917542 
	C1003.189087,562.238281 1002.111694,562.558960 1000.145874,562.808838 
	C996.675354,563.207825 993.184998,564.066284 989.738220,563.917114 
	C980.407410,563.513550 975.895630,569.761780 971.348267,576.298096 
	C970.144836,578.027832 968.579651,579.974304 966.735962,580.716492 
	C951.308899,586.926208 935.770020,592.857544 920.290283,598.937622 
	C918.638550,599.586365 917.055298,600.516418 915.602051,601.544617 
	C910.081726,605.450562 905.001465,610.179565 899.053101,613.227844 
	C891.848450,616.920105 883.899048,619.140991 876.329346,622.143372 
	C865.325989,626.507690 854.328674,630.979248 845.718323,639.511902 
	C837.506165,647.650024 839.100952,654.711426 850.305115,656.868042 
	C859.368408,658.612488 868.792908,658.441162 878.043762,659.268860 
	C881.985962,659.621521 886.090027,659.779175 889.777161,661.034363 
	C897.507019,663.665710 898.797668,669.115601 893.401672,675.150330 
	C891.311096,677.488464 888.862915,679.575012 886.328064,681.436279 
	C874.345886,690.234802 861.043457,696.264587 846.429688,698.915649 
	C833.513245,701.258789 823.641724,707.067139 817.356262,719.133545 
	C812.971558,727.551208 805.924133,734.126892 797.096558,737.766418 
	C785.451843,742.567261 775.919128,750.084534 766.627869,758.278442 
	C756.756775,766.983582 750.079773,777.479309 747.911682,790.401367 
	C746.599121,798.224182 746.016724,806.252930 746.006836,814.190247 
	C745.993835,824.547119 754.009827,833.613281 764.304626,834.751892 
	C772.020996,835.605347 779.879211,835.286987 787.674377,835.290894 
	C798.440369,835.296387 809.405518,833.751282 819.932068,835.289001 
	C843.738647,838.766479 855.457642,852.600525 857.199646,876.053467 
	C857.420776,879.030884 859.855835,881.843933 861.240112,884.762634 
	C861.240112,884.762634 861.241943,884.799866 860.989502,885.471497 
	C861.681946,885.965332 862.374390,886.459229 863.004517,886.999329 
	C863.004517,886.999329 863.046753,886.934448 862.989014,887.565674 
	C863.358887,887.683228 863.728760,887.800781 864.010376,887.984558 
	C864.010376,887.984558 864.068848,887.890991 864.096191,888.562439 
	C864.687195,888.768860 865.278198,888.975342 865.976501,889.019104 
	C865.976501,889.019104 865.843140,889.161133 865.905273,889.744690 
M1274.107300,469.157288 
	C1269.177002,444.280121 1259.976929,421.182037 1245.527100,400.243866 
	C1244.688843,399.029114 1244.485718,397.375885 1244.700562,395.864838 
	C1245.490723,396.927551 1246.299805,397.976868 1247.068604,399.054932 
	C1261.698975,419.572144 1270.467529,442.600037 1276.017700,467.781403 
	C1278.478149,487.252472 1280.938721,506.723572 1283.366943,525.939697 
	C1283.380615,525.925110 1283.872803,525.497437 1284.252686,524.986267 
	C1325.621826,469.329651 1367.053833,413.719360 1408.213013,357.907990 
	C1411.633423,353.269958 1413.207031,347.269958 1415.871704,341.120789 
	C1419.503540,324.442352 1421.049438,307.725525 1419.179810,290.586273 
	C1414.502319,247.708221 1367.622192,206.246552 1317.619141,226.141800 
	C1300.331055,233.020386 1283.384644,241.168701 1267.234497,250.402588 
	C1241.375610,265.187439 1217.205566,282.770599 1190.219727,295.812408 
	C1169.460938,305.844727 1149.534668,317.600159 1129.243286,328.598602 
	C1127.869019,329.343597 1126.537231,330.167084 1124.344482,331.443848 
	C1145.296143,333.896484 1164.596680,338.524078 1182.755127,347.011932 
	C1190.120239,350.454712 1196.980469,354.977692 1203.635864,359.807770 
	C1203.171021,359.667328 1202.649536,359.619232 1202.249634,359.373230 
	C1177.246826,343.988922 1149.826782,336.146393 1120.815918,333.312195 
	C1112.773438,332.526459 1104.974854,332.907928 1097.661011,337.213135 
	C1082.047119,346.404144 1066.275635,355.327301 1050.575928,364.372681 
	C1047.795410,365.974640 1045.049927,367.636963 1042.288208,369.271423 
	C1043.813843,369.896790 1045.080200,369.862823 1046.340576,369.756683 
	C1070.598145,367.713593 1094.624634,369.289886 1118.267944,375.062408 
	C1168.265869,387.269409 1204.944336,415.514160 1223.205444,464.668304 
	C1228.032349,477.661102 1230.409058,491.564117 1233.737427,505.941071 
	C1236.669067,530.318176 1236.843384,554.734619 1234.252930,579.377808 
	C1235.090576,579.084534 1235.495972,579.068420 1235.686890,578.857849 
	C1249.892944,563.194336 1264.124023,547.552979 1278.194580,531.768494 
	C1279.358521,530.462769 1279.951782,528.168884 1279.914429,526.352539 
	C1279.730225,517.368530 1279.707886,508.340454 1278.741455,499.424103 
	C1277.671997,489.557678 1275.641235,479.795441 1274.107300,469.157288 
M1190.013794,545.865173 
	C1191.182373,592.915100 1170.706421,631.407654 1141.951904,666.713806 
	C1152.876343,662.906372 1161.633667,656.127380 1169.812256,648.602966 
	C1193.478027,626.830505 1212.878174,601.460938 1231.148560,575.169250 
	C1232.054321,573.865906 1232.807373,572.192505 1232.918213,570.640503 
	C1234.390015,550.018005 1234.703979,529.409912 1231.558716,508.101959 
	C1230.048828,500.130768 1228.954590,492.053955 1226.960449,484.205811 
	C1215.577026,439.405762 1189.981323,406.120911 1147.111572,387.296936 
	C1114.252441,372.868591 1079.625977,369.796661 1044.239258,372.132935 
	C1037.783569,372.559143 1032.172485,374.812927 1026.703369,378.306213 
	C1012.976929,387.073975 999.000977,395.453125 985.078186,403.910919 
	C970.472778,412.783447 957.046936,423.102020 945.906189,436.138702 
	C921.935547,464.188354 910.558838,497.077362 909.150146,533.615601 
	C908.333435,554.797974 911.288696,575.513489 917.808228,595.980774 
	C920.628601,594.528564 923.085205,593.263611 925.663757,591.935913 
	C925.126099,590.409973 924.744934,589.341003 924.372314,588.268982 
	C904.662292,531.562012 922.251465,470.343079 968.752258,433.802887 
	C1019.681946,393.782471 1092.846680,394.967926 1139.606934,437.597015 
	C1170.975830,466.194397 1187.407837,502.518127 1190.013794,545.865173 
M971.367676,434.874695 
	C917.354004,476.179291 908.346252,545.626648 929.110046,592.417236 
	C941.610046,587.571411 954.149109,582.760254 966.621887,577.782959 
	C967.644592,577.374817 968.307922,575.892578 968.981873,574.811890 
	C973.945984,566.851501 980.013245,561.349976 990.347961,560.818481 
	C997.833069,560.433472 1005.299072,558.006653 1012.560547,555.791931 
	C1015.341614,554.943604 1017.696533,552.330872 1019.952759,550.210571 
	C1023.756531,546.636108 1026.699707,541.554749 1031.122803,539.350647 
	C1041.025879,534.415833 1051.453735,530.375183 1061.963379,526.852173 
	C1080.169312,520.749390 1094.973877,509.197083 1110.183960,498.193970 
	C1115.356689,494.451843 1120.228516,489.914734 1125.966309,487.408600 
	C1139.364136,481.556763 1148.347046,471.196777 1157.241333,460.271851 
	C1131.285400,425.775513 1096.979980,408.049805 1054.500854,407.158875 
	C1024.015381,406.519470 996.373596,416.029633 971.367676,434.874695 
z"/>
<path fill="#AD6F4B" opacity="1.000000" stroke="none" 
	d="
M1004.967163,561.853638 
	C1008.059143,560.672424 1011.328796,559.811035 1014.192932,558.219788 
	C1017.042969,556.636292 1020.569397,554.861816 1021.892395,552.217224 
	C1025.137329,545.730713 1030.552368,542.139465 1036.586060,539.333191 
	C1043.353638,536.185547 1050.246094,532.969238 1057.428955,531.125305 
	C1070.766113,527.701416 1082.474854,521.230896 1093.534668,513.481995 
	C1101.107788,508.175934 1108.062378,501.994232 1115.423218,496.374023 
	C1118.047119,494.370636 1120.856689,492.309113 1123.918457,491.232605 
	C1137.536987,486.444397 1147.317017,476.883514 1156.218140,466.119598 
	C1156.956421,465.226746 1157.673828,464.316467 1158.854370,462.851593 
	C1160.034302,464.508301 1161.062378,465.888977 1162.025513,467.313477 
	C1183.639771,499.284149 1189.954834,534.884460 1185.706787,572.503479 
	C1183.375366,593.149353 1174.106323,611.662109 1163.524170,629.274841 
	C1156.592285,640.812195 1148.624756,651.727966 1141.093750,662.903748 
	C1140.259033,664.142639 1139.472534,665.617493 1138.278442,666.377991 
	C1130.464111,671.354980 1133.361084,678.321106 1135.248535,684.594177 
	C1137.140015,690.879883 1142.796265,693.484619 1148.837891,693.942200 
	C1158.279541,694.657532 1167.776611,694.752075 1177.253052,694.868103 
	C1188.911987,695.010986 1200.574219,694.930664 1212.234741,694.897949 
	C1218.482788,694.880432 1223.608154,697.296143 1227.467651,702.111084 
	C1230.023071,705.299072 1231.878540,708.875854 1230.008545,713.161011 
	C1228.058716,717.628967 1224.646729,720.646790 1219.820801,720.898438 
	C1216.458740,721.073853 1212.866821,720.363586 1209.652710,719.252869 
	C1194.596191,714.049500 1179.260620,710.445312 1163.240479,711.085144 
	C1156.958252,711.336060 1150.666138,712.274414 1144.461304,713.368896 
	C1116.597290,718.283630 1112.104980,751.571838 1124.491943,768.237488 
	C1132.821899,779.444885 1141.044800,790.791565 1148.415039,802.636230 
	C1155.997070,814.821411 1162.066162,827.950256 1163.211548,842.521301 
	C1163.708984,848.848389 1162.940918,855.445862 1161.651489,861.694275 
	C1160.367798,867.914673 1155.545044,870.318542 1149.107422,869.486023 
	C1131.425415,867.199341 1117.039795,857.976868 1103.291138,847.551392 
	C1098.398071,843.841125 1093.830933,839.668945 1089.341064,835.466064 
	C1081.058105,827.712463 1071.538818,827.391968 1061.381958,830.397278 
	C1059.473389,830.962036 1057.632202,831.754272 1055.407959,831.870911 
	C1064.323853,826.430908 1073.889038,823.282410 1084.755859,826.621094 
	C1079.449463,817.948242 1071.825317,815.320923 1062.690063,819.326111 
	C1051.138184,824.390808 1042.339844,832.897095 1034.665527,843.007629 
	C1034.420044,843.329590 1034.418579,843.561768 1034.417114,843.793945 
	C1034.718628,843.630371 1035.020264,843.466797 1035.653564,843.215332 
	C1037.612183,841.976196 1039.154419,840.674500 1040.882324,839.702881 
	C1045.557251,837.074158 1050.311157,834.585815 1055.033691,832.041809 
	C1054.338379,832.807434 1053.727661,833.676880 1052.934448,834.322327 
	C1046.758911,839.347717 1039.838013,843.677429 1034.511230,849.475281 
	C1026.085693,858.645630 1015.582275,860.841187 1004.209412,860.444641 
	C997.637268,860.215454 991.144165,858.232910 984.569702,857.401306 
	C978.665222,856.654541 972.634094,855.626160 966.773315,856.109558 
	C957.422485,856.880798 950.679565,861.266724 947.127808,871.017456 
	C945.229614,876.228577 940.845276,881.698853 936.080078,884.428162 
	C928.910278,888.534790 920.422546,890.340515 912.331482,892.704346 
	C913.746887,891.791687 915.359375,891.385803 916.899780,890.792969 
	C930.568420,885.532349 941.177490,876.886230 947.467041,863.106323 
	C947.674561,862.724121 947.650940,862.474487 947.627380,862.224915 
	C947.390564,862.453796 947.153809,862.682678 946.593994,863.010132 
	C934.951477,874.330017 921.714050,881.536438 905.680908,883.713135 
	C887.166016,886.226746 872.635559,879.353699 863.500610,862.981873 
	C863.047913,862.170471 862.567200,861.374695 861.667480,859.829590 
	C860.611694,862.360901 859.771545,864.104980 859.146179,865.923035 
	C856.879578,872.512817 859.106934,878.625244 861.265198,884.733093 
	C859.855835,881.843933 857.420776,879.030884 857.199646,876.053467 
	C855.457642,852.600525 843.738647,838.766479 819.932068,835.289001 
	C809.405518,833.751282 798.440369,835.296387 787.674377,835.290894 
	C779.879211,835.286987 772.020996,835.605347 764.304626,834.751892 
	C754.009827,833.613281 745.993835,824.547119 746.006836,814.190247 
	C746.016724,806.252930 746.599121,798.224182 747.911682,790.401367 
	C750.079773,777.479309 756.756775,766.983582 766.627869,758.278442 
	C775.919128,750.084534 785.451843,742.567261 797.096558,737.766418 
	C805.924133,734.126892 812.971558,727.551208 817.356262,719.133545 
	C823.641724,707.067139 833.513245,701.258789 846.429688,698.915649 
	C861.043457,696.264587 874.345886,690.234802 886.328064,681.436279 
	C888.862915,679.575012 891.311096,677.488464 893.401672,675.150330 
	C898.797668,669.115601 897.507019,663.665710 889.777161,661.034363 
	C886.090027,659.779175 881.985962,659.621521 878.043762,659.268860 
	C868.792908,658.441162 859.368408,658.612488 850.305115,656.868042 
	C839.100952,654.711426 837.506165,647.650024 845.718323,639.511902 
	C854.328674,630.979248 865.325989,626.507690 876.329346,622.143372 
	C883.899048,619.140991 891.848450,616.920105 899.053101,613.227844 
	C905.001465,610.179565 910.081726,605.450562 915.602051,601.544617 
	C917.055298,600.516418 918.638550,599.586365 920.290283,598.937622 
	C935.770020,592.857544 951.308899,586.926208 966.735962,580.716492 
	C968.579651,579.974304 970.144836,578.027832 971.348267,576.298096 
	C975.895630,569.761780 980.407410,563.513550 989.738220,563.917114 
	C993.184998,564.066284 996.675354,563.207825 1000.494141,563.179565 
	C996.857422,568.466370 992.763428,573.300293 988.955444,578.349915 
	C987.853516,579.811096 987.030090,581.883423 987.003479,583.689209 
	C986.831726,595.348511 986.899658,607.011597 986.944031,618.673218 
	C986.948059,619.736755 987.338989,620.798828 987.550232,621.861633 
	C988.016968,621.809631 988.483704,621.757690 988.950439,621.705750 
	C988.950439,608.670715 988.950439,595.635681 988.950439,582.500732 
	C1003.324036,582.500732 1017.049316,582.500732 1031.711426,582.500732 
	C1031.711426,595.812683 1031.711426,608.806641 1031.711426,621.800598 
	C1032.161133,621.789551 1032.610840,621.778503 1033.060547,621.767456 
	C1035.300659,605.456543 1030.675781,588.556580 1037.374268,572.520752 
	C1037.873413,579.799133 1038.372681,587.077515 1038.871826,594.355896 
	C1039.546509,594.287415 1040.221069,594.218933 1040.895752,594.150452 
	C1040.303345,583.537109 1039.711060,572.923706 1039.093262,561.853638 
	C1027.231079,561.853638 1016.099121,561.853638 1004.967163,561.853638 
M867.867004,746.089294 
	C869.812561,745.698303 871.793701,745.433228 873.697876,744.895630 
	C885.069641,741.684937 895.382568,742.889404 905.246094,750.236572 
	C910.012939,753.787292 916.140015,755.874023 921.963928,757.510742 
	C925.599365,758.532349 929.818420,757.477234 933.775574,757.354004 
	C933.779785,756.899170 933.783997,756.444336 933.788208,755.989441 
	C922.922241,756.572205 913.734131,752.638733 905.200989,746.216187 
	C894.120972,737.876770 878.871826,737.984985 866.458557,745.985168 
	C866.176208,746.134644 865.893860,746.284119 865.611511,746.433655 
	C866.086060,746.304138 866.560547,746.174683 867.867004,746.089294 
M1047.302002,812.024109 
	C1046.365845,812.688904 1045.397583,813.313232 1044.498047,814.024536 
	C1028.800537,826.437500 1011.432678,832.795227 991.307983,828.000549 
	C985.094177,826.520142 979.130371,823.989990 972.956726,821.611755 
	C972.842529,821.564819 972.728271,821.517883 972.614075,821.470947 
	C972.729858,821.657959 972.845642,821.845032 973.044373,822.715759 
	C981.484558,835.208984 1001.951843,842.937744 1017.212708,839.399353 
	C1032.458618,835.864502 1042.776978,826.796326 1048.315430,811.899475 
	C1048.210327,811.932190 1048.105103,811.964844 1047.302002,812.024109 
M968.288086,666.081970 
	C966.928894,666.699707 965.584167,667.351868 964.208374,667.929810 
	C951.812744,673.136841 939.347778,674.312439 927.435181,667.030579 
	C922.842407,664.223083 919.134949,659.971741 915.007507,656.397522 
	C908.591248,650.841309 901.539917,647.668396 892.902649,650.430603 
	C901.081787,651.307190 907.133728,654.815125 911.023987,662.521851 
	C913.504456,667.435791 916.863342,672.189026 920.781860,676.045410 
	C937.767639,692.761658 959.608887,680.995300 969.274719,665.912537 
	C969.189209,665.949890 969.103699,665.987183 968.288086,666.081970 
M873.105652,796.297302 
	C873.203857,796.340881 873.302124,796.384399 873.400330,796.427917 
	C873.268005,796.284485 873.135742,796.140991 873.001709,795.271301 
	C871.168213,793.973572 869.431580,791.747864 867.483887,791.544678 
	C860.437622,790.809570 853.301086,790.282776 846.235168,790.571411 
	C838.820557,790.874329 831.467529,792.683655 824.052979,792.984741 
	C809.454895,793.577820 798.200806,787.908508 791.935303,774.055359 
	C791.852783,773.872986 791.418396,773.849670 791.147217,773.754944 
	C782.309021,787.509766 786.605164,798.695740 802.408325,802.006470 
	C814.188416,804.474304 825.874329,803.416626 837.144409,798.968567 
	C844.903320,795.906311 852.662781,792.828979 861.264282,793.997742 
	C865.193604,794.531738 869.087585,795.326233 873.105652,796.297302 
M1106.235229,752.021362 
	C1090.625244,762.721558 1073.846680,767.236694 1055.459229,760.535706 
	C1045.573120,756.932739 1035.861572,756.756653 1026.301270,760.566956 
	C1019.143005,763.419983 1012.540161,763.523010 1005.691467,760.034424 
	C1004.124329,759.236145 1002.060669,759.412720 1000.225464,759.140625 
	C1000.039124,759.725098 999.852783,760.309509 999.666443,760.893921 
	C1001.118469,762.105225 1002.430115,763.561768 1004.046143,764.486328 
	C1012.074524,769.079651 1020.633728,769.087341 1029.136841,766.404419 
	C1038.177612,763.552124 1046.622314,764.297363 1055.121094,768.400757 
	C1063.849609,772.615051 1072.942261,775.554016 1082.924927,775.076355 
	C1095.364868,774.481201 1105.884521,764.695068 1107.428467,751.940247 
	C1107.260132,751.930908 1107.091675,751.921570 1106.235229,752.021362 
M1163.026733,576.920288 
	C1163.336426,577.539734 1163.645996,578.159180 1163.955566,578.778625 
	C1164.460205,578.724976 1164.964722,578.671387 1165.469360,578.617737 
	C1165.469360,571.379395 1166.253906,564.035583 1165.298340,556.925659 
	C1163.560303,543.993286 1167.626953,534.821777 1179.792725,529.506470 
	C1181.163452,528.907593 1182.180298,527.498779 1183.361328,526.465454 
	C1181.734253,525.992432 1180.668457,526.185486 1180.033569,526.813904 
	C1169.543335,537.197205 1156.608765,538.928406 1142.744995,537.511597 
	C1141.426025,537.376831 1140.081421,537.493530 1138.748657,537.493530 
	C1136.913208,537.493530 1135.077637,537.493530 1133.242188,537.493530 
	C1133.187256,537.046082 1133.132446,536.598572 1133.077637,536.151123 
	C1136.547363,533.950806 1139.830322,531.343872 1143.529785,529.643250 
	C1149.448364,526.922668 1152.218384,522.883240 1150.874878,516.356567 
	C1149.994507,512.080261 1152.182739,510.103485 1155.975830,508.764374 
	C1159.494385,507.522186 1162.787842,505.642426 1166.180298,504.043396 
	C1165.980957,503.594208 1165.781494,503.144989 1165.582153,502.695801 
	C1158.254028,504.108765 1152.258057,510.165558 1144.086548,508.914917 
	C1136.492432,507.752655 1128.798950,507.239227 1121.149292,506.440094 
	C1121.152710,506.099915 1121.156006,505.759705 1121.159424,505.419495 
	C1127.701782,503.807495 1134.244141,502.195496 1140.786499,500.583496 
	C1140.709106,500.170197 1140.631836,499.756897 1140.554443,499.343567 
	C1139.805298,499.247009 1139.008179,498.933685 1138.314209,499.086792 
	C1129.384644,501.056335 1120.439453,502.974670 1111.589478,505.259735 
	C1110.473633,505.547882 1109.177490,507.840332 1109.152954,509.225250 
	C1108.955444,520.383423 1109.023315,531.546753 1109.079712,542.708130 
	C1109.084106,543.585999 1109.612793,544.461304 1109.897705,545.337769 
	C1110.302612,545.270325 1110.707397,545.202881 1111.112183,545.135376 
	C1111.112183,532.897278 1111.112183,520.659180 1111.112183,507.934601 
	C1123.272095,509.034393 1134.833252,510.069763 1146.389648,511.155029 
	C1146.981445,511.210632 1147.711426,511.551331 1148.073364,512.002747 
	C1149.894531,514.274475 1148.161377,524.038635 1145.640137,525.632385 
	C1139.871826,529.278687 1133.953491,532.701721 1128.340820,536.570374 
	C1126.905273,537.559814 1125.625977,539.845825 1125.566772,541.580383 
	C1125.281860,549.900208 1125.419434,558.235352 1125.460327,566.564697 
	C1125.467773,568.068848 1125.723633,569.571777 1125.864746,571.075317 
	C1126.451538,571.066406 1127.038452,571.057495 1127.625244,571.048584 
	C1127.625244,560.798767 1127.625244,550.548889 1127.625244,540.334045 
	C1140.028076,540.334045 1151.447388,540.334045 1163.009399,540.334045 
	C1163.009399,552.436890 1163.009399,564.231873 1163.026733,576.920288 
M1135.563599,850.072998 
	C1127.105591,847.779053 1118.647583,845.485046 1109.982422,843.134888 
	C1110.220947,843.774963 1110.259521,844.335938 1110.559937,844.618652 
	C1122.302246,855.669983 1136.188354,862.379883 1152.132080,864.592163 
	C1156.178345,865.153564 1159.538818,862.924377 1160.510254,858.940125 
	C1163.664185,846.005249 1160.687866,834.124329 1153.653809,822.427673 
	C1153.150635,828.854919 1153.245850,834.666443 1152.137329,840.238403 
	C1150.214478,849.902832 1145.954712,852.317810 1135.563599,850.072998 
M977.277161,693.985413 
	C977.753784,684.717834 978.230469,675.450256 978.749695,665.355591 
	C986.230164,668.878845 992.898132,672.179321 999.710022,675.150024 
	C1002.480652,676.358337 1003.256165,678.028564 1003.131470,680.907898 
	C1002.670349,691.558044 1002.414978,702.217285 1002.126953,712.874329 
	C1002.082642,714.515808 1002.272949,716.163696 1002.354736,717.808594 
	C1002.892212,717.806702 1003.429688,717.804810 1003.967163,717.802917 
	C1004.136536,715.755920 1004.400452,713.711609 1004.459351,711.661438 
	C1004.751343,701.503479 1005.058350,691.344910 1005.204163,681.184326 
	C1005.248474,678.100952 1006.388367,676.398865 1009.387451,675.356384 
	C1014.566284,673.556335 1019.590027,671.311523 1024.686768,669.273010 
	C1028.599854,667.707825 1032.525146,666.172852 1037.617920,664.161133 
	C1037.617920,681.021790 1037.617920,696.669800 1037.617920,712.317810 
	C1038.833984,711.676941 1039.092285,711.051514 1039.093384,710.425720 
	C1039.119385,695.264343 1039.219238,680.101196 1038.966431,664.944092 
	C1038.940918,663.411438 1037.071045,661.221436 1035.520508,660.516418 
	C1026.894165,656.594116 1018.152100,652.908569 1009.324280,649.463318 
	C1007.607727,648.793396 1005.071594,648.961792 1003.367432,649.738953 
	C995.650574,653.257874 988.161804,657.276367 980.450928,660.809326 
	C977.468689,662.175781 976.275085,663.911011 976.177734,667.212219 
	C975.790039,680.363098 975.104980,693.505188 974.594055,706.652954 
	C974.562988,707.451355 975.086670,708.271240 975.352173,709.081055 
	C975.969482,709.060425 976.586792,709.039795 977.204102,709.019104 
	C977.204102,704.319031 977.204102,699.618958 977.277161,693.985413 
M759.603638,818.014099 
	C756.473328,813.723328 753.343079,809.432617 750.207520,805.134583 
	C750.010437,807.334473 749.679749,809.645142 749.616760,811.963013 
	C749.315796,823.037231 754.468994,829.650940 765.435730,831.164185 
	C772.149902,832.090698 779.022705,832.263428 785.813232,832.143677 
	C794.869324,831.983948 803.914612,831.211426 813.117188,830.693542 
	C813.399353,826.148743 810.862366,825.149048 807.540710,825.095459 
	C801.721558,825.001526 795.867249,825.366821 790.088623,824.854004 
	C779.890015,823.948792 769.416504,824.012878 759.603638,818.014099 
M1104.913696,685.482666 
	C1104.473145,682.799377 1104.032593,680.116089 1103.357178,676.002197 
	C1092.847168,693.707703 1077.751587,698.277649 1058.227173,694.700562 
	C1065.352783,700.225220 1068.232666,701.901428 1080.282593,703.410217 
	C1092.301758,704.915222 1104.121826,700.654297 1104.913696,685.482666 
M927.062012,819.913086 
	C930.116638,819.120117 933.151855,818.240906 936.229370,817.549744 
	C947.462341,815.026855 957.677246,816.346313 966.127136,825.348206 
	C965.307251,823.259033 964.278320,821.281189 962.736328,819.859741 
	C954.306335,812.088867 944.208679,811.064575 933.794800,814.054932 
	C916.196411,819.108337 902.100891,814.225464 890.658752,800.372314 
	C889.868042,799.414917 888.798950,798.687500 887.859253,797.853149 
	C895.843079,813.656433 908.250916,821.793030 927.062012,819.913086 
M868.227722,742.581726 
	C867.315674,742.034607 866.467712,741.208008 865.482056,740.982056 
	C848.875061,737.175232 833.373108,731.823730 826.801880,712.556702 
	C824.683228,723.772278 829.119812,733.304993 838.318481,739.051636 
	C847.474609,744.771667 857.350403,745.279541 868.227722,742.581726 
M1068.044556,564.749390 
	C1067.641235,565.404724 1066.745239,566.451233 1066.908447,566.656677 
	C1069.263428,569.621765 1071.760742,572.473877 1074.223877,575.353149 
	C1074.734985,574.935547 1075.245972,574.518005 1075.757080,574.100464 
	C1073.758423,571.674683 1071.759888,569.248901 1069.448975,566.444092 
	C1076.541138,561.398621 1083.386108,556.528870 1091.464233,550.781860 
	C1087.995483,561.678711 1084.969360,571.184631 1081.943237,580.690552 
	C1082.558228,580.885681 1083.173218,581.080750 1083.788330,581.275818 
	C1087.254517,570.949707 1090.720825,560.623596 1094.347046,549.820923 
	C1102.728271,556.928650 1110.624023,563.624634 1120.367920,571.888062 
	C1116.813599,574.359741 1114.057861,576.276001 1111.302124,578.192322 
	C1111.485474,578.371216 1111.668823,578.550110 1111.852173,578.728943 
	C1114.716309,575.624817 1117.580444,572.520691 1120.650513,569.193481 
	C1112.340942,562.174011 1103.105103,554.371948 1093.755737,546.473999 
	C1085.149780,552.578735 1076.890259,558.437866 1068.044556,564.749390 
M1144.083008,605.358276 
	C1144.243042,608.532104 1144.402954,611.705933 1144.562988,614.879761 
	C1145.356445,614.843994 1146.149780,614.808228 1146.943115,614.772461 
	C1146.943115,610.923706 1146.743286,607.061462 1147.000244,603.229980 
	C1147.249023,599.520386 1145.619507,598.067322 1142.130127,597.961365 
	C1140.823242,597.921753 1139.535278,597.449524 1138.226440,597.257324 
	C1131.314575,596.242615 1124.470459,593.976807 1118.017212,599.493835 
	C1113.894897,603.017883 1112.147339,610.235596 1115.767212,615.882874 
	C1115.979248,611.933899 1116.159546,608.576782 1116.375732,604.551453 
	C1121.763550,605.440186 1126.449219,606.439026 1131.187378,606.913635 
	C1134.243530,607.219727 1135.177734,608.575989 1135.108276,611.406006 
	C1135.047363,613.882080 1135.327393,616.366577 1135.456665,618.847412 
	C1136.202881,618.847900 1136.948975,618.848450 1137.695190,618.848999 
	C1137.773804,615.938782 1137.806030,613.026428 1137.942139,610.118958 
	C1138.134766,606.001831 1140.437988,603.946106 1144.083008,605.358276 
M974.109070,630.729004 
	C972.889221,630.003296 971.751526,629.034607 970.436707,628.589539 
	C957.453552,624.195068 946.460693,617.215149 939.330444,605.084351 
	C939.219055,604.894836 938.730164,604.927246 938.277100,604.824036 
	C938.444946,610.947510 940.614014,616.253967 944.637024,620.696533 
	C952.378967,629.245605 962.191833,632.254272 974.109070,630.729004 
M1076.810913,540.515686 
	C1079.640259,539.006897 1082.469482,537.498047 1085.548950,535.855896 
	C1086.023071,539.108887 1086.379395,541.553162 1086.735596,543.997437 
	C1087.263550,543.952332 1087.791504,543.907166 1088.319458,543.862061 
	C1089.001953,540.075989 1090.776001,535.306763 1087.436157,532.751770 
	C1084.052856,530.163513 1079.157349,528.339294 1074.355713,531.252747 
	C1071.803467,532.801331 1069.040894,534.003357 1066.373291,535.361633 
	C1060.715454,538.242310 1058.916016,545.925293 1063.286987,553.019409 
	C1063.724121,548.348389 1064.056641,544.793701 1064.382690,541.309265 
	C1068.948120,541.158508 1068.948120,541.158508 1073.364990,551.456848 
	C1073.807861,549.649902 1073.640503,547.748108 1074.041138,545.974609 
	C1074.438721,544.214722 1075.408081,542.584045 1076.810913,540.515686 
M1077.723511,607.739685 
	C1078.271362,609.142090 1078.819092,610.544434 1079.366943,611.946838 
	C1079.911377,611.756470 1080.455811,611.566040 1081.000244,611.375671 
	C1079.536621,606.454834 1077.934204,601.569580 1076.662476,596.599548 
	C1075.928711,593.731262 1074.462280,593.118896 1071.658569,593.385498 
	C1064.042480,594.109680 1056.393433,594.481018 1048.761597,595.047546 
	C1047.516113,595.140015 1046.291504,595.513733 1044.380371,595.891174 
	C1045.465576,596.861572 1045.705078,597.256409 1045.924683,597.245667 
	C1051.234009,596.984619 1056.557983,596.854370 1061.845581,596.348572 
	C1074.072388,595.178833 1074.065186,595.103516 1077.723511,607.739685 
M1225.937622,710.251038 
	C1225.517822,703.479370 1223.291016,700.489807 1217.807983,698.971497 
	C1219.115845,702.205200 1221.745117,705.708313 1221.543701,709.040283 
	C1221.337158,712.458618 1218.362427,715.709595 1216.797485,718.660156 
	C1221.652344,718.503662 1223.539551,717.052551 1225.937622,710.251038 
M1108.592651,842.515564 
	C1108.592651,842.515564 1108.529419,842.481873 1108.592651,842.515564 
M948.480591,860.535950 
	C948.480591,860.535950 948.467590,860.606995 948.480591,860.535950 
M1057.376099,694.477844 
	C1057.376099,694.477844 1057.577393,694.580750 1057.577393,694.580750 
	C1057.577393,694.580750 1057.541992,694.384644 1057.376099,694.477844 
z"/>
<path fill="#FEFEFE" opacity="1.000000" stroke="none" 
	d="
M1204.070435,359.009125 
	C1196.980469,354.977692 1190.120239,350.454712 1182.755127,347.011932 
	C1164.596680,338.524078 1145.296143,333.896484 1124.344482,331.443848 
	C1126.537231,330.167084 1127.869019,329.343597 1129.243286,328.598602 
	C1149.534668,317.600159 1169.460938,305.844727 1190.219727,295.812408 
	C1217.205566,282.770599 1241.375610,265.187439 1267.234497,250.402588 
	C1283.384644,241.168701 1300.331055,233.020386 1317.619141,226.141800 
	C1367.622192,206.246552 1414.502319,247.708221 1419.179810,290.586273 
	C1421.049438,307.725525 1419.503540,324.442352 1415.427734,341.545288 
	C1402.188965,353.575104 1389.401001,365.187958 1376.597900,376.783997 
	C1352.098389,398.973633 1327.624023,421.190948 1303.068359,443.318146 
	C1294.196045,451.312988 1285.120239,459.082031 1276.137207,466.954102 
	C1270.467529,442.600037 1261.698975,419.572144 1247.068604,399.054932 
	C1246.299805,397.976868 1245.490723,396.927551 1244.349854,395.926392 
	C1243.999146,395.987915 1244.049194,396.027039 1244.141602,395.672974 
	C1243.158203,394.015442 1242.082397,392.711945 1240.934326,391.343719 
	C1240.862183,391.279022 1240.582031,391.010925 1240.468018,390.649292 
	C1238.737671,388.853516 1237.121460,387.419373 1235.238525,385.936401 
	C1233.978149,385.122375 1232.984131,384.357208 1232.471680,383.356567 
	C1230.743286,378.580902 1229.137939,377.327148 1226.232178,377.781311 
	C1225.234009,376.030548 1224.412598,374.508362 1223.350098,372.721832 
	C1221.397827,371.287842 1219.686890,370.118195 1217.991211,368.970459 
	C1218.006470,368.992371 1218.055298,369.014069 1218.052979,368.632355 
	C1216.348145,367.494507 1214.645630,366.738342 1212.962280,366.002228 
	C1212.981567,366.022278 1213.027222,366.054138 1213.356201,365.779663 
	C1212.449463,364.653625 1211.213867,363.802032 1209.993164,362.971710 
	C1210.008179,362.992981 1210.056519,363.012604 1210.032715,362.611694 
	C1208.655029,361.801056 1207.301025,361.391266 1205.965820,361.000610 
	C1205.984619,361.019714 1206.030396,361.047241 1206.334839,360.739014 
	C1205.751343,359.937103 1204.863525,359.443390 1203.993408,358.973877 
	C1204.011230,358.998047 1204.070435,359.009125 1204.070435,359.009125 
z"/>
<path fill="#D2C8BB" opacity="1.000000" stroke="none" 
	d="
M971.637451,434.640015 
	C996.373596,416.029633 1024.015381,406.519470 1054.500854,407.158875 
	C1096.979980,408.049805 1131.285400,425.775513 1157.241333,460.271851 
	C1148.347046,471.196777 1139.364136,481.556763 1125.966309,487.408600 
	C1120.228516,489.914734 1115.356689,494.451843 1110.183960,498.193970 
	C1094.973877,509.197083 1080.169312,520.749390 1061.963379,526.852173 
	C1051.453735,530.375183 1041.025879,534.415833 1031.122803,539.350647 
	C1026.699707,541.554749 1023.756531,546.636108 1019.952759,550.210571 
	C1017.696533,552.330872 1015.341614,554.943604 1012.560547,555.791931 
	C1005.299072,558.006653 997.833069,560.433472 990.347961,560.818481 
	C980.013245,561.349976 973.945984,566.851501 968.981873,574.811890 
	C968.307922,575.892578 967.644592,577.374817 966.621887,577.782959 
	C954.149109,582.760254 941.610046,587.571411 929.110046,592.417236 
	C908.346252,545.626648 917.354004,476.179291 971.637451,434.640015 
z"/>
<path fill="#FDFDFD" opacity="1.000000" stroke="none" 
	d="
M1190.179443,544.935364 
	C1187.407837,502.518127 1170.975830,466.194397 1139.606934,437.597015 
	C1092.846680,394.967926 1019.681946,393.782471 968.752258,433.802887 
	C922.251465,470.343079 904.662292,531.562012 924.372314,588.268982 
	C924.744934,589.341003 925.126099,590.409973 925.663757,591.935913 
	C923.085205,593.263611 920.628601,594.528564 917.808228,595.980774 
	C911.288696,575.513489 908.333435,554.797974 909.150146,533.615601 
	C910.558838,497.077362 921.935547,464.188354 945.906189,436.138702 
	C957.046936,423.102020 970.472778,412.783447 985.078186,403.910919 
	C999.000977,395.453125 1012.976929,387.073975 1026.703369,378.306213 
	C1032.172485,374.812927 1037.783569,372.559143 1044.239258,372.132935 
	C1079.625977,369.796661 1114.252441,372.868591 1147.111572,387.296936 
	C1189.981323,406.120911 1215.577026,439.405762 1226.960449,484.205811 
	C1228.954590,492.053955 1230.048828,500.130768 1231.237305,508.519531 
	C1226.962891,512.423340 1223.006592,515.905762 1219.057739,519.396545 
	C1209.429810,527.907471 1199.805298,536.422180 1190.179443,544.935364 
z"/>
<path fill="#FDFDFD" opacity="1.000000" stroke="none" 
	d="
M1231.990112,383.592102 
	C1232.984131,384.357208 1233.978149,385.122375 1234.971680,386.315033 
	C1236.841553,388.165344 1238.711792,389.588135 1240.582031,391.010925 
	C1240.582031,391.010925 1240.862183,391.279022 1240.460938,391.579742 
	C1241.389648,393.262665 1242.719360,394.644867 1244.049194,396.027039 
	C1244.049194,396.027039 1243.999146,395.987915 1243.993164,395.957336 
	C1244.485718,397.375885 1244.688843,399.029114 1245.527100,400.243866 
	C1259.976929,421.182037 1269.177002,444.280121 1273.756104,469.699097 
	C1265.303711,477.595093 1257.262085,485.016632 1249.078613,492.278137 
	C1244.136475,496.663513 1238.974121,500.800568 1233.910767,505.049194 
	C1230.409058,491.564117 1228.032349,477.661102 1223.205444,464.668304 
	C1204.944336,415.514160 1168.265869,387.269409 1118.267944,375.062408 
	C1094.624634,369.289886 1070.598145,367.713593 1046.340576,369.756683 
	C1045.080200,369.862823 1043.813843,369.896790 1042.288208,369.271423 
	C1045.049927,367.636963 1047.795410,365.974640 1050.575928,364.372681 
	C1066.275635,355.327301 1082.047119,346.404144 1097.661011,337.213135 
	C1104.974854,332.907928 1112.773438,332.526459 1120.815918,333.312195 
	C1149.826782,336.146393 1177.246826,343.988922 1202.249634,359.373230 
	C1202.649536,359.619232 1203.171021,359.667328 1203.853149,359.408447 
	C1204.070435,359.009125 1204.011230,358.998047 1203.687500,359.281525 
	C1204.252686,360.059082 1205.141479,360.553162 1206.030396,361.047241 
	C1206.030396,361.047241 1205.984619,361.019714 1205.981689,361.402710 
	C1207.337891,362.194672 1208.697266,362.603638 1210.056519,363.012604 
	C1210.056519,363.012604 1210.008179,362.992981 1209.678833,363.248627 
	C1210.575439,364.354218 1211.801270,365.204193 1213.027222,366.054138 
	C1213.027222,366.054138 1212.981567,366.022278 1212.983765,366.377869 
	C1214.675781,367.493652 1216.365479,368.253876 1218.055298,369.014069 
	C1218.055298,369.014069 1218.006470,368.992371 1217.656494,369.292755 
	C1219.391113,370.742950 1219.773804,375.045593 1223.591187,372.986145 
	C1224.412598,374.508362 1225.234009,376.030548 1226.468262,378.049805 
	C1228.584106,380.228607 1230.287109,381.910370 1231.990112,383.592102 
z"/>
<path fill="#D2C8BB" opacity="1.000000" stroke="none" 
	d="
M1276.077393,467.367767 
	C1285.120239,459.082031 1294.196045,451.312988 1303.068359,443.318146 
	C1327.624023,421.190948 1352.098389,398.973633 1376.597900,376.783997 
	C1389.401001,365.187958 1402.188965,353.575104 1415.311279,341.936279 
	C1413.207031,347.269958 1411.633423,353.269958 1408.213013,357.907990 
	C1367.053833,413.719360 1325.621826,469.329651 1284.252686,524.986267 
	C1283.872803,525.497437 1283.380615,525.925110 1283.366943,525.939697 
	C1280.938721,506.723572 1278.478149,487.252472 1276.077393,467.367767 
z"/>
<path fill="#D2C8BB" opacity="1.000000" stroke="none" 
	d="
M1190.096680,545.400269 
	C1199.805298,536.422180 1209.429810,527.907471 1219.057739,519.396545 
	C1223.006592,515.905762 1226.962891,512.423340 1231.243896,508.910278 
	C1234.703979,529.409912 1234.390015,550.018005 1232.918213,570.640503 
	C1232.807373,572.192505 1232.054321,573.865906 1231.148560,575.169250 
	C1212.878174,601.460938 1193.478027,626.830505 1169.812256,648.602966 
	C1161.633667,656.127380 1152.876343,662.906372 1141.951904,666.713806 
	C1170.706421,631.407654 1191.182373,592.915100 1190.096680,545.400269 
z"/>
<path fill="#D2C8BB" opacity="1.000000" stroke="none" 
	d="
M1233.824097,505.495117 
	C1238.974121,500.800568 1244.136475,496.663513 1249.078613,492.278137 
	C1257.262085,485.016632 1265.303711,477.595093 1273.717041,470.114380 
	C1275.641235,479.795441 1277.671997,489.557678 1278.741455,499.424103 
	C1279.707886,508.340454 1279.730225,517.368530 1279.914429,526.352539 
	C1279.951782,528.168884 1279.358521,530.462769 1278.194580,531.768494 
	C1264.124023,547.552979 1249.892944,563.194336 1235.686890,578.857849 
	C1235.495972,579.068420 1235.090576,579.084534 1234.252930,579.377808 
	C1236.843384,554.734619 1236.669067,530.318176 1233.824097,505.495117 
z"/>
<path fill="#FCF9F8" opacity="1.000000" stroke="none" 
	d="
M947.235901,863.239014 
	C941.177490,876.886230 930.568420,885.532349 916.899780,890.792969 
	C915.359375,891.385803 913.746887,891.791687 911.907898,892.574097 
	C908.778870,893.288269 905.922791,893.872253 903.038208,894.108887 
	C890.970886,895.098877 878.987732,895.009766 867.225098,890.138550 
	C866.642273,889.406677 866.242737,889.283875 865.843140,889.161133 
	C865.843140,889.161133 865.976501,889.019104 865.882690,888.772156 
	C865.215515,888.313843 864.642212,888.102417 864.068848,887.890991 
	C864.068848,887.890991 864.010376,887.984558 864.070068,887.634888 
	C863.768799,887.168335 863.407776,887.051392 863.046753,886.934448 
	C863.046753,886.934448 863.004517,886.999329 863.105652,886.643738 
	C862.551880,885.792053 861.896912,885.295959 861.241943,884.799866 
	C861.241943,884.799866 861.240112,884.762634 861.252686,884.747864 
	C859.106934,878.625244 856.879578,872.512817 859.146179,865.923035 
	C859.771545,864.104980 860.611694,862.360901 861.667480,859.829590 
	C862.567200,861.374695 863.047913,862.170471 863.500610,862.981873 
	C872.635559,879.353699 887.166016,886.226746 905.680908,883.713135 
	C921.714050,881.536438 934.951477,874.330017 946.673584,863.092041 
	C947.076233,863.075500 947.235901,863.239014 947.235901,863.239014 
z"/>
<path fill="#F6EFEB" opacity="1.000000" stroke="none" 
	d="
M1004.616821,561.885620 
	C1016.099121,561.853638 1027.231079,561.853638 1039.093262,561.853638 
	C1039.711060,572.923706 1040.303345,583.537109 1040.895752,594.150452 
	C1040.221069,594.218933 1039.546509,594.287415 1038.871826,594.355896 
	C1038.372681,587.077515 1037.873413,579.799133 1037.374268,572.520752 
	C1030.675781,588.556580 1035.300659,605.456543 1033.060547,621.767456 
	C1032.610840,621.778503 1032.161133,621.789551 1031.711426,621.800598 
	C1031.711426,608.806641 1031.711426,595.812683 1031.711426,582.500732 
	C1017.049316,582.500732 1003.324036,582.500732 988.950439,582.500732 
	C988.950439,595.635681 988.950439,608.670715 988.950439,621.705750 
	C988.483704,621.757690 988.016968,621.809631 987.550232,621.861633 
	C987.338989,620.798828 986.948059,619.736755 986.944031,618.673218 
	C986.899658,607.011597 986.831726,595.348511 987.003479,583.689209 
	C987.030090,581.883423 987.853516,579.811096 988.955444,578.349915 
	C992.763428,573.300293 996.857422,568.466370 1000.938416,563.214966 
	C1002.111694,562.558960 1003.189087,562.238281 1004.616821,561.885620 
M999.616821,580.040833 
	C1009.109680,580.040710 1018.603027,580.090759 1028.094604,579.981506 
	C1029.387817,579.966675 1031.505249,579.478516 1031.821777,578.660400 
	C1033.598145,574.068970 1034.939331,569.309143 1036.592651,564.090149 
	C1025.630981,564.090149 1015.487366,564.077881 1005.343933,564.114319 
	C1004.560608,564.117188 1003.465088,564.196655 1003.044373,564.691162 
	C998.943970,569.511414 994.956421,574.427734 990.341309,580.040833 
	C994.009705,580.040833 996.337219,580.040833 999.616821,580.040833 
z"/>
<path fill="#AD6F4B" opacity="1.000000" stroke="none" 
	d="
M861.115723,885.135681 
	C861.896912,885.295959 862.551880,885.792053 863.136841,886.620605 
	C862.374390,886.459229 861.681946,885.965332 861.115723,885.135681 
z"/>
<path fill="#AD6F4B" opacity="1.000000" stroke="none" 
	d="
M864.082520,888.226685 
	C864.642212,888.102417 865.215515,888.313843 865.829041,888.853516 
	C865.278198,888.975342 864.687195,888.768860 864.082520,888.226685 
z"/>
<path fill="#AD6F4B" opacity="1.000000" stroke="none" 
	d="
M865.874207,889.452881 
	C866.242737,889.283875 866.642273,889.406677 867.004028,889.865479 
	C866.612488,890.049255 866.258911,889.896973 865.874207,889.452881 
z"/>
<path fill="#AD6F4B" opacity="1.000000" stroke="none" 
	d="
M863.017883,887.250122 
	C863.407776,887.051392 863.768799,887.168335 864.114258,887.601807 
	C863.728760,887.800781 863.358887,887.683228 863.017883,887.250122 
z"/>
<path fill="#5E411E" opacity="1.000000" stroke="none" 
	d="
M1107.109741,752.095825 
	C1105.884521,764.695068 1095.364868,774.481201 1082.924927,775.076355 
	C1072.942261,775.554016 1063.849609,772.615051 1055.121094,768.400757 
	C1046.622314,764.297363 1038.177612,763.552124 1029.136841,766.404419 
	C1020.633728,769.087341 1012.074524,769.079651 1004.046143,764.486328 
	C1002.430115,763.561768 1001.118469,762.105225 999.666443,760.893921 
	C999.852783,760.309509 1000.039124,759.725098 1000.225464,759.140625 
	C1002.060669,759.412720 1004.124329,759.236145 1005.691467,760.034424 
	C1012.540161,763.523010 1019.143005,763.419983 1026.301270,760.566956 
	C1035.861572,756.756653 1045.573120,756.932739 1055.459229,760.535706 
	C1073.846680,767.236694 1090.625244,762.721558 1106.624268,752.014343 
	C1107.013428,752.007324 1107.109741,752.095825 1107.109741,752.095825 
z"/>
<path fill="#5E411E" opacity="1.000000" stroke="none" 
	d="
M872.997559,796.002441 
	C869.087585,795.326233 865.193604,794.531738 861.264282,793.997742 
	C852.662781,792.828979 844.903320,795.906311 837.144409,798.968567 
	C825.874329,803.416626 814.188416,804.474304 802.408325,802.006470 
	C786.605164,798.695740 782.309021,787.509766 791.147705,773.753540 
	C791.418396,773.849670 791.852783,773.872986 791.935303,774.055359 
	C798.200806,787.908508 809.454895,793.577820 824.052979,792.984741 
	C831.467529,792.683655 838.820557,790.874329 846.235168,790.571411 
	C853.301086,790.282776 860.437622,790.809570 867.483887,791.544678 
	C869.431580,791.747864 871.168213,793.973572 873.000854,795.635620 
	C873.000000,796.000000 872.997559,796.002441 872.997559,796.002441 
z"/>
<path fill="#F6EFEB" opacity="1.000000" stroke="none" 
	d="
M1163.018066,576.473511 
	C1163.009399,564.231873 1163.009399,552.436890 1163.009399,540.334045 
	C1151.447388,540.334045 1140.028076,540.334045 1127.625244,540.334045 
	C1127.625244,550.548889 1127.625244,560.798767 1127.625244,571.048584 
	C1127.038452,571.057495 1126.451538,571.066406 1125.864746,571.075317 
	C1125.723633,569.571777 1125.467773,568.068848 1125.460327,566.564697 
	C1125.419434,558.235352 1125.281860,549.900208 1125.566772,541.580383 
	C1125.625977,539.845825 1126.905273,537.559814 1128.340820,536.570374 
	C1133.953491,532.701721 1139.871826,529.278687 1145.640137,525.632385 
	C1148.161377,524.038635 1149.894531,514.274475 1148.073364,512.002747 
	C1147.711426,511.551331 1146.981445,511.210632 1146.389648,511.155029 
	C1134.833252,510.069763 1123.272095,509.034393 1111.112183,507.934601 
	C1111.112183,520.659180 1111.112183,532.897278 1111.112183,545.135376 
	C1110.707397,545.202881 1110.302612,545.270325 1109.897705,545.337769 
	C1109.612793,544.461304 1109.084106,543.585999 1109.079712,542.708130 
	C1109.023315,531.546753 1108.955444,520.383423 1109.152954,509.225250 
	C1109.177490,507.840332 1110.473633,505.547882 1111.589478,505.259735 
	C1120.439453,502.974670 1129.384644,501.056335 1138.314209,499.086792 
	C1139.008179,498.933685 1139.805298,499.247009 1140.554443,499.343567 
	C1140.631836,499.756897 1140.709106,500.170197 1140.786499,500.583496 
	C1134.244141,502.195496 1127.701782,503.807495 1121.159424,505.419495 
	C1121.156006,505.759705 1121.152710,506.099915 1121.149292,506.440094 
	C1128.798950,507.239227 1136.492432,507.752655 1144.086548,508.914917 
	C1152.258057,510.165558 1158.254028,504.108765 1165.582153,502.695801 
	C1165.781494,503.144989 1165.980957,503.594208 1166.180298,504.043396 
	C1162.787842,505.642426 1159.494385,507.522186 1155.975830,508.764374 
	C1152.182739,510.103485 1149.994507,512.080261 1150.874878,516.356567 
	C1152.218384,522.883240 1149.448364,526.922668 1143.529785,529.643250 
	C1139.830322,531.343872 1136.547363,533.950806 1133.077637,536.151123 
	C1133.132446,536.598572 1133.187256,537.046082 1133.242188,537.493530 
	C1135.077637,537.493530 1136.913208,537.493530 1138.748657,537.493530 
	C1140.081421,537.493530 1141.426025,537.376831 1142.744995,537.511597 
	C1156.608765,538.928406 1169.543335,537.197205 1180.033569,526.813904 
	C1180.668457,526.185486 1181.734253,525.992432 1183.361328,526.465454 
	C1182.180298,527.498779 1181.163452,528.907593 1179.792725,529.506470 
	C1167.626953,534.821777 1163.560303,543.993286 1165.298340,556.925659 
	C1166.253906,564.035583 1165.469360,571.379395 1165.469360,578.617737 
	C1164.964722,578.671387 1164.460205,578.724976 1163.955566,578.778625 
	C1163.645996,578.159180 1163.336426,577.539734 1163.018066,576.473511 
z"/>
<path fill="#FCF9F8" opacity="1.000000" stroke="none" 
	d="
M1135.980469,850.143799 
	C1145.954712,852.317810 1150.214478,849.902832 1152.137329,840.238403 
	C1153.245850,834.666443 1153.150635,828.854919 1153.653809,822.427673 
	C1160.687866,834.124329 1163.664185,846.005249 1160.510254,858.940125 
	C1159.538818,862.924377 1156.178345,865.153564 1152.132080,864.592163 
	C1136.188354,862.379883 1122.302246,855.669983 1110.559937,844.618652 
	C1110.259521,844.335938 1110.220947,843.774963 1109.982422,843.134888 
	C1118.647583,845.485046 1127.105591,847.779053 1135.980469,850.143799 
z"/>
<path fill="#5E411E" opacity="1.000000" stroke="none" 
	d="
M968.972961,665.978394 
	C959.608887,680.995300 937.767639,692.761658 920.781860,676.045410 
	C916.863342,672.189026 913.504456,667.435791 911.023987,662.521851 
	C907.133728,654.815125 901.081787,651.307190 892.902649,650.430603 
	C901.539917,647.668396 908.591248,650.841309 915.007507,656.397522 
	C919.134949,659.971741 922.842407,664.223083 927.435181,667.030579 
	C939.347778,674.312439 951.812744,673.136841 964.208374,667.929810 
	C965.584167,667.351868 966.928894,666.699707 968.643066,666.040527 
	C968.998108,665.999084 968.972961,665.978394 968.972961,665.978394 
z"/>
<path fill="#5E411E" opacity="1.000000" stroke="none" 
	d="
M973.052124,821.940430 
	C979.130371,823.989990 985.094177,826.520142 991.307983,828.000549 
	C1011.432678,832.795227 1028.800537,826.437500 1044.498047,814.024536 
	C1045.397583,813.313232 1046.365845,812.688904 1047.651001,812.012085 
	C1048.000000,812.000000 1048.000000,812.000732 1048.000000,812.000732 
	C1042.776978,826.796326 1032.458618,835.864502 1017.212708,839.399353 
	C1001.951843,842.937744 981.484558,835.208984 973.026611,822.352051 
	C973.008911,821.988281 973.052124,821.940430 973.052124,821.940430 
z"/>
<path fill="#F6EFEB" opacity="1.000000" stroke="none" 
	d="
M977.240601,694.452148 
	C977.204102,699.618958 977.204102,704.319031 977.204102,709.019104 
	C976.586792,709.039795 975.969482,709.060425 975.352173,709.081055 
	C975.086670,708.271240 974.562988,707.451355 974.594055,706.652954 
	C975.104980,693.505188 975.790039,680.363098 976.177734,667.212219 
	C976.275085,663.911011 977.468689,662.175781 980.450928,660.809326 
	C988.161804,657.276367 995.650574,653.257874 1003.367432,649.738953 
	C1005.071594,648.961792 1007.607727,648.793396 1009.324280,649.463318 
	C1018.152100,652.908569 1026.894165,656.594116 1035.520508,660.516418 
	C1037.071045,661.221436 1038.940918,663.411438 1038.966431,664.944092 
	C1039.219238,680.101196 1039.119385,695.264343 1039.093384,710.425720 
	C1039.092285,711.051514 1038.833984,711.676941 1037.617920,712.317810 
	C1037.617920,696.669800 1037.617920,681.021790 1037.617920,664.161133 
	C1032.525146,666.172852 1028.599854,667.707825 1024.686768,669.273010 
	C1019.590027,671.311523 1014.566284,673.556335 1009.387451,675.356384 
	C1006.388367,676.398865 1005.248474,678.100952 1005.204163,681.184326 
	C1005.058350,691.344910 1004.751343,701.503479 1004.459351,711.661438 
	C1004.400452,713.711609 1004.136536,715.755920 1003.967163,717.802917 
	C1003.429688,717.804810 1002.892212,717.806702 1002.354736,717.808594 
	C1002.272949,716.163696 1002.082642,714.515808 1002.126953,712.874329 
	C1002.414978,702.217285 1002.670349,691.558044 1003.131470,680.907898 
	C1003.256165,678.028564 1002.480652,676.358337 999.710022,675.150024 
	C992.898132,672.179321 986.230164,668.878845 978.749695,665.355591 
	C978.230469,675.450256 977.753784,684.717834 977.240601,694.452148 
M982.744324,662.145142 
	C982.181335,662.589050 981.618347,663.033020 980.703064,663.754700 
	C988.353760,667.409119 995.521545,670.882996 1002.750732,674.223694 
	C1003.677917,674.652100 1005.069031,674.755371 1006.001465,674.388977 
	C1015.546997,670.638489 1025.042114,666.759827 1035.223999,662.645081 
	C1026.024292,658.766907 1017.664307,655.077515 1009.148560,651.792114 
	C1007.440796,651.133240 1004.904419,651.488464 1003.154053,652.275024 
	C996.486145,655.271362 989.983643,658.635742 982.744324,662.145142 
z"/>
<path fill="#FCF9F8" opacity="1.000000" stroke="none" 
	d="
M759.891663,818.246460 
	C769.416504,824.012878 779.890015,823.948792 790.088623,824.854004 
	C795.867249,825.366821 801.721558,825.001526 807.540710,825.095459 
	C810.862366,825.149048 813.399353,826.148743 813.117188,830.693542 
	C803.914612,831.211426 794.869324,831.983948 785.813232,832.143677 
	C779.022705,832.263428 772.149902,832.090698 765.435730,831.164185 
	C754.468994,829.650940 749.315796,823.037231 749.616760,811.963013 
	C749.679749,809.645142 750.010437,807.334473 750.207520,805.134583 
	C753.343079,809.432617 756.473328,813.723328 759.891663,818.246460 
z"/>
<path fill="#5E411E" opacity="1.000000" stroke="none" 
	d="
M1104.911377,685.904053 
	C1104.121826,700.654297 1092.301758,704.915222 1080.282593,703.410217 
	C1068.232666,701.901428 1065.352783,700.225220 1058.227173,694.700562 
	C1077.751587,698.277649 1092.847168,693.707703 1103.357178,676.002197 
	C1104.032593,680.116089 1104.473145,682.799377 1104.911377,685.904053 
z"/>
<path fill="#FCF9F8" opacity="1.000000" stroke="none" 
	d="
M926.606934,819.950256 
	C908.250916,821.793030 895.843079,813.656433 887.859253,797.853149 
	C888.798950,798.687500 889.868042,799.414917 890.658752,800.372314 
	C902.100891,814.225464 916.196411,819.108337 933.794800,814.054932 
	C944.208679,811.064575 954.306335,812.088867 962.736328,819.859741 
	C964.278320,821.281189 965.307251,823.259033 966.127136,825.348206 
	C957.677246,816.346313 947.462341,815.026855 936.229370,817.549744 
	C933.151855,818.240906 930.116638,819.120117 926.606934,819.950256 
z"/>
<path fill="#FCF9F8" opacity="1.000000" stroke="none" 
	d="
M1034.909546,842.917908 
	C1042.339844,832.897095 1051.138184,824.390808 1062.690063,819.326111 
	C1071.825317,815.320923 1079.449463,817.948242 1084.755859,826.621094 
	C1073.889038,823.282410 1064.323853,826.430908 1055.043701,831.668823 
	C1055.031128,832.037354 1055.003296,832.001526 1055.018555,832.021667 
	C1050.311157,834.585815 1045.557251,837.074158 1040.882324,839.702881 
	C1039.154419,840.674500 1037.612183,841.976196 1035.550171,843.119263 
	C1035.115112,843.111206 1034.909546,842.917908 1034.909546,842.917908 
z"/>
<path fill="#FCF9F8" opacity="1.000000" stroke="none" 
	d="
M867.908569,742.744080 
	C857.350403,745.279541 847.474609,744.771667 838.318481,739.051636 
	C829.119812,733.304993 824.683228,723.772278 826.801880,712.556702 
	C833.373108,731.823730 848.875061,737.175232 865.482056,740.982056 
	C866.467712,741.208008 867.315674,742.034607 867.908569,742.744080 
z"/>
<path fill="#F6EFEB" opacity="1.000000" stroke="none" 
	d="
M1068.337646,564.523193 
	C1076.890259,558.437866 1085.149780,552.578735 1093.755737,546.473999 
	C1103.105103,554.371948 1112.340942,562.174011 1120.650513,569.193481 
	C1117.580444,572.520691 1114.716309,575.624817 1111.852173,578.728943 
	C1111.668823,578.550110 1111.485474,578.371216 1111.302124,578.192322 
	C1114.057861,576.276001 1116.813599,574.359741 1120.367920,571.888062 
	C1110.624023,563.624634 1102.728271,556.928650 1094.347046,549.820923 
	C1090.720825,560.623596 1087.254517,570.949707 1083.788330,581.275818 
	C1083.173218,581.080750 1082.558228,580.885681 1081.943237,580.690552 
	C1084.969360,571.184631 1087.995483,561.678711 1091.464233,550.781860 
	C1083.386108,556.528870 1076.541138,561.398621 1069.448975,566.444092 
	C1071.759888,569.248901 1073.758423,571.674683 1075.757080,574.100464 
	C1075.245972,574.518005 1074.734985,574.935547 1074.223877,575.353149 
	C1071.760742,572.473877 1069.263428,569.621765 1066.908447,566.656677 
	C1066.745239,566.451233 1067.641235,565.404724 1068.337646,564.523193 
z"/>
<path fill="#684825" opacity="1.000000" stroke="none" 
	d="
M1144.065918,604.966858 
	C1140.437988,603.946106 1138.134766,606.001831 1137.942139,610.118958 
	C1137.806030,613.026428 1137.773804,615.938782 1137.695190,618.848999 
	C1136.948975,618.848450 1136.202881,618.847900 1135.456665,618.847412 
	C1135.327393,616.366577 1135.047363,613.882080 1135.108276,611.406006 
	C1135.177734,608.575989 1134.243530,607.219727 1131.187378,606.913635 
	C1126.449219,606.439026 1121.763550,605.440186 1116.375732,604.551453 
	C1116.159546,608.576782 1115.979248,611.933899 1115.767212,615.882874 
	C1112.147339,610.235596 1113.894897,603.017883 1118.017212,599.493835 
	C1124.470459,593.976807 1131.314575,596.242615 1138.226440,597.257324 
	C1139.535278,597.449524 1140.823242,597.921753 1142.130127,597.961365 
	C1145.619507,598.067322 1147.249023,599.520386 1147.000244,603.229980 
	C1146.743286,607.061462 1146.943115,610.923706 1146.943115,614.772461 
	C1146.149780,614.808228 1145.356445,614.843994 1144.562988,614.879761 
	C1144.402954,611.705933 1144.243042,608.532104 1144.065918,604.966858 
M1123.527344,603.120422 
	C1129.651611,603.796631 1136.328857,608.345398 1141.492310,600.650024 
	C1125.804565,596.786926 1123.959106,596.942688 1120.306274,602.575623 
	C1121.181885,602.743530 1121.955933,602.891907 1123.527344,603.120422 
z"/>
<path fill="#FCF9F8" opacity="1.000000" stroke="none" 
	d="
M973.797119,630.850342 
	C962.191833,632.254272 952.378967,629.245605 944.637024,620.696533 
	C940.614014,616.253967 938.444946,610.947510 938.277100,604.824036 
	C938.730164,604.927246 939.219055,604.894836 939.330444,605.084351 
	C946.460693,617.215149 957.453552,624.195068 970.436707,628.589539 
	C971.751526,629.034607 972.889221,630.003296 973.797119,630.850342 
z"/>
<path fill="#684825" opacity="1.000000" stroke="none" 
	d="
M1076.468750,540.706177 
	C1075.408081,542.584045 1074.438721,544.214722 1074.041138,545.974609 
	C1073.640503,547.748108 1073.807861,549.649902 1073.364990,551.456848 
	C1068.948120,541.158508 1068.948120,541.158508 1064.382690,541.309265 
	C1064.056641,544.793701 1063.724121,548.348389 1063.286987,553.019409 
	C1058.916016,545.925293 1060.715454,538.242310 1066.373291,535.361633 
	C1069.040894,534.003357 1071.803467,532.801331 1074.355713,531.252747 
	C1079.157349,528.339294 1084.052856,530.163513 1087.436157,532.751770 
	C1090.776001,535.306763 1089.001953,540.075989 1088.319458,543.862061 
	C1087.791504,543.907166 1087.263550,543.952332 1086.735596,543.997437 
	C1086.379395,541.553162 1086.023071,539.108887 1085.548950,535.855896 
	C1082.469482,537.498047 1079.640259,539.006897 1076.468750,540.706177 
M1071.583984,539.914001 
	C1075.599609,538.026672 1079.615234,536.139343 1084.390381,533.895020 
	C1076.154175,529.898254 1072.098022,536.093140 1065.325073,538.075256 
	C1068.130737,538.946167 1069.488525,539.367676 1071.583984,539.914001 
z"/>
<path fill="#5E411E" opacity="1.000000" stroke="none" 
	d="
M866.964539,745.963501 
	C878.871826,737.984985 894.120972,737.876770 905.200989,746.216187 
	C913.734131,752.638733 922.922241,756.572205 933.788208,755.989441 
	C933.783997,756.444336 933.779785,756.899170 933.775574,757.354004 
	C929.818420,757.477234 925.599365,758.532349 921.963928,757.510742 
	C916.140015,755.874023 910.012939,753.787292 905.246094,750.236572 
	C895.382568,742.889404 885.069641,741.684937 873.697876,744.895630 
	C871.793701,745.433228 869.812561,745.698303 867.434143,746.046204 
	C867.001282,746.003113 866.964539,745.963501 866.964539,745.963501 
z"/>
<path fill="#F6EFEB" opacity="1.000000" stroke="none" 
	d="
M1077.581177,607.379395 
	C1074.065186,595.103516 1074.072388,595.178833 1061.845581,596.348572 
	C1056.557983,596.854370 1051.234009,596.984619 1045.924683,597.245667 
	C1045.705078,597.256409 1045.465576,596.861572 1044.380371,595.891174 
	C1046.291504,595.513733 1047.516113,595.140015 1048.761597,595.047546 
	C1056.393433,594.481018 1064.042480,594.109680 1071.658569,593.385498 
	C1074.462280,593.118896 1075.928711,593.731262 1076.662476,596.599548 
	C1077.934204,601.569580 1079.536621,606.454834 1081.000244,611.375671 
	C1080.455811,611.566040 1079.911377,611.756470 1079.366943,611.946838 
	C1078.819092,610.544434 1078.271362,609.142090 1077.581177,607.379395 
z"/>
<path fill="#F6EFEB" opacity="1.000000" stroke="none" 
	d="
M1225.893311,710.647461 
	C1223.539551,717.052551 1221.652344,718.503662 1216.797485,718.660156 
	C1218.362427,715.709595 1221.337158,712.458618 1221.543701,709.040283 
	C1221.745117,705.708313 1219.115845,702.205200 1217.807983,698.971497 
	C1223.291016,700.489807 1225.517822,703.479370 1225.893311,710.647461 
z"/>
<path fill="#5E411E" opacity="1.000000" stroke="none" 
	d="
M867.018188,746.024170 
	C866.560547,746.174683 866.086060,746.304138 865.611511,746.433655 
	C865.893860,746.284119 866.176208,746.134644 866.711548,745.974365 
	C866.964539,745.963501 867.001282,746.003113 867.018188,746.024170 
z"/>
<path fill="#FCF9F8" opacity="1.000000" stroke="none" 
	d="
M1108.561035,842.498718 
	C1108.529419,842.481873 1108.592651,842.515564 1108.561035,842.498718 
z"/>
<path fill="#FCF9F8" opacity="1.000000" stroke="none" 
	d="
M946.996582,862.993530 
	C947.153809,862.682678 947.390564,862.453796 947.627380,862.224915 
	C947.650940,862.474487 947.674561,862.724121 947.467041,863.106323 
	C947.235901,863.239014 947.076233,863.075500 946.996582,862.993530 
z"/>
<path fill="#FCF9F8" opacity="1.000000" stroke="none" 
	d="
M948.474121,860.571472 
	C948.467590,860.606995 948.480591,860.535950 948.474121,860.571472 
z"/>
<path fill="#FCF9F8" opacity="1.000000" stroke="none" 
	d="
M1035.218506,843.207214 
	C1035.020264,843.466797 1034.718628,843.630371 1034.417114,843.793945 
	C1034.418579,843.561768 1034.420044,843.329590 1034.665527,843.007629 
	C1034.909546,842.917908 1035.115112,843.111206 1035.218506,843.207214 
z"/>
<path fill="#5E411E" opacity="1.000000" stroke="none" 
	d="
M1048.000000,811.998779 
	C1048.105103,811.964844 1048.210327,811.932190 1048.157715,811.950073 
	C1048.000000,812.000732 1048.000000,812.000000 1048.000000,811.998779 
z"/>
<path fill="#5E411E" opacity="1.000000" stroke="none" 
	d="
M1106.968384,751.959778 
	C1107.091675,751.921570 1107.260132,751.930908 1107.269043,752.018066 
	C1107.109741,752.095825 1107.013428,752.007324 1106.968384,751.959778 
z"/>
<path fill="#5E411E" opacity="1.000000" stroke="none" 
	d="
M873.001709,795.998779 
	C873.135742,796.140991 873.268005,796.284485 873.400330,796.427917 
	C873.302124,796.384399 873.203857,796.340881 873.051636,796.149902 
	C872.997559,796.002441 873.000000,796.000000 873.001709,795.998779 
z"/>
<path fill="#5E411E" opacity="1.000000" stroke="none" 
	d="
M972.985168,822.010132 
	C972.845642,821.845032 972.729858,821.657959 972.614075,821.470947 
	C972.728271,821.517883 972.842529,821.564819 973.004395,821.776123 
	C973.052124,821.940430 973.008911,821.988281 972.985168,822.010132 
z"/>
<path fill="#5E411E" opacity="1.000000" stroke="none" 
	d="
M969.008118,666.011841 
	C969.103699,665.987183 969.189209,665.949890 969.123840,665.945435 
	C968.972961,665.978394 968.998108,665.999084 969.008118,666.011841 
z"/>
<path fill="#5E411E" opacity="1.000000" stroke="none" 
	d="
M1057.458984,694.431274 
	C1057.541992,694.384644 1057.577393,694.580750 1057.577393,694.580750 
	C1057.577393,694.580750 1057.376099,694.477844 1057.458984,694.431274 
z"/>
<path fill="#000000" opacity="1.000000" stroke="none" 
	d="
M1232.471680,383.356567 
	C1230.287109,381.910370 1228.584106,380.228607 1226.645020,378.278381 
	C1229.137939,377.327148 1230.743286,378.580902 1232.471680,383.356567 
z"/>
<path fill="#000000" opacity="1.000000" stroke="none" 
	d="
M1223.350098,372.721802 
	C1219.773804,375.045593 1219.391113,370.742950 1217.641113,369.270844 
	C1219.686890,370.118195 1221.397827,371.287842 1223.350098,372.721802 
z"/>
<path fill="#000000" opacity="1.000000" stroke="none" 
	d="
M1240.468018,390.649292 
	C1238.711792,389.588135 1236.841553,388.165344 1235.238281,386.363892 
	C1237.121460,387.419373 1238.737671,388.853516 1240.468018,390.649292 
z"/>
<path fill="#000000" opacity="1.000000" stroke="none" 
	d="
M1218.052979,368.632355 
	C1216.365479,368.253876 1214.675781,367.493652 1212.964478,366.357788 
	C1214.645630,366.738342 1216.348145,367.494507 1218.052979,368.632355 
z"/>
<path fill="#000000" opacity="1.000000" stroke="none" 
	d="
M1244.141602,395.673004 
	C1242.719360,394.644867 1241.389648,393.262665 1240.533203,391.644440 
	C1242.082397,392.711945 1243.158203,394.015442 1244.141602,395.673004 
z"/>
<path fill="#000000" opacity="1.000000" stroke="none" 
	d="
M1213.356201,365.779663 
	C1211.801270,365.204193 1210.575439,364.354218 1209.663818,363.227356 
	C1211.213867,363.802032 1212.449463,364.653625 1213.356201,365.779663 
z"/>
<path fill="#000000" opacity="1.000000" stroke="none" 
	d="
M1210.032715,362.611694 
	C1208.697266,362.603638 1207.337891,362.194672 1205.962891,361.383606 
	C1207.301025,361.391266 1208.655029,361.801056 1210.032715,362.611694 
z"/>
<path fill="#000000" opacity="1.000000" stroke="none" 
	d="
M1206.334839,360.739014 
	C1205.141479,360.553162 1204.252686,360.059082 1203.669678,359.257355 
	C1204.863525,359.443390 1205.751343,359.937103 1206.334839,360.739014 
z"/>
<path fill="#AD6F4B" opacity="1.000000" stroke="none" 
	d="
M999.140808,580.040833 
	C996.337219,580.040833 994.009705,580.040833 990.341309,580.040833 
	C994.956421,574.427734 998.943970,569.511414 1003.044373,564.691162 
	C1003.465088,564.196655 1004.560608,564.117188 1005.343933,564.114319 
	C1015.487366,564.077881 1025.630981,564.090149 1036.592651,564.090149 
	C1034.939331,569.309143 1033.598145,574.068970 1031.821777,578.660400 
	C1031.505249,579.478516 1029.387817,579.966675 1028.094604,579.981506 
	C1018.603027,580.090759 1009.109680,580.040710 999.140808,580.040833 
z"/>
<path fill="#AF724F" opacity="1.000000" stroke="none" 
	d="
M983.081848,662.003845 
	C989.983643,658.635742 996.486145,655.271362 1003.154053,652.275024 
	C1004.904419,651.488464 1007.440796,651.133240 1009.148560,651.792114 
	C1017.664307,655.077515 1026.024292,658.766907 1035.223999,662.645081 
	C1025.042114,666.759827 1015.546997,670.638489 1006.001465,674.388977 
	C1005.069031,674.755371 1003.677917,674.652100 1002.750732,674.223694 
	C995.521545,670.882996 988.353760,667.409119 980.703064,663.754700 
	C981.618347,663.033020 982.181335,662.589050 983.081848,662.003845 
z"/>
<path fill="#AD6F4B" opacity="1.000000" stroke="none" 
	d="
M1123.128662,603.080322 
	C1121.955933,602.891907 1121.181885,602.743530 1120.306274,602.575623 
	C1123.959106,596.942688 1125.804565,596.786926 1141.492310,600.650024 
	C1136.328857,608.345398 1129.651611,603.796631 1123.128662,603.080322 
z"/>
<path fill="#AD6F4B" opacity="1.000000" stroke="none" 
	d="
M1071.215088,539.851562 
	C1069.488525,539.367676 1068.130737,538.946167 1065.325073,538.075256 
	C1072.098022,536.093140 1076.154175,529.898254 1084.390381,533.895020 
	C1079.615234,536.139343 1075.599609,538.026672 1071.215088,539.851562 
z"/>
</svg>